<svg width="285" height="303" viewBox="0 0 285 303" fill="none" xmlns="http://www.w3.org/2000/svg">
<path d="M55.8333 184.46V27.8301H0V298.752H55.8333V211.439L94.4271 273.648C109.792 296.127 129.276 302.872 151.385 302.872C166.375 302.872 183.984 299.502 201.599 284.137L180.615 244.794C173.495 249.663 164.125 251.538 160.005 251.538C149.135 251.538 142.391 247.413 133.776 234.299L108.667 194.205L172.37 114.012V106.518H110.542L55.8333 184.46Z" fill="#1922FB"/>
<mask id="mask0_231_1110" style="mask-type:luminance" maskUnits="userSpaceOnUse" x="212" y="58" width="73" height="62">
<path d="M212.251 58.666H284.251V119.999H212.251V58.666Z" fill="white"/>
</mask>
<g mask="url(#mask0_231_1110)">
<mask id="mask1_231_1110" style="mask-type:luminance" maskUnits="userSpaceOnUse" x="210" y="57" width="77" height="72">
<path d="M267.991 57.2021L286.329 78.3115L228.553 128.499L210.215 107.39L267.991 57.2021Z" fill="white"/>
</mask>
<g mask="url(#mask1_231_1110)">
<mask id="mask2_231_1110" style="mask-type:luminance" maskUnits="userSpaceOnUse" x="192" y="57" width="95" height="87">
<path d="M267.991 57.2021L286.33 78.3115L210.778 143.942L192.439 122.832L267.991 57.2021Z" fill="white"/>
</mask>
<g mask="url(#mask2_231_1110)">
<path d="M213.012 107.39L222.72 118.572C222.897 118.77 223.194 118.817 223.418 118.676L283.913 80.8375C284.038 80.7594 284.127 80.6344 284.158 80.4885C284.184 80.3427 284.153 80.1917 284.069 80.0719L269.611 59.1083C269.522 58.9833 269.387 58.9 269.236 58.8792C269.08 58.8635 268.929 58.9052 268.814 59.0042L213.064 106.624C212.96 106.718 212.887 106.853 212.882 106.999C212.871 107.14 212.918 107.285 213.012 107.39Z" fill="#1922FB"/>
</g>
</g>
</g>
<mask id="mask3_231_1110" style="mask-type:luminance" maskUnits="userSpaceOnUse" x="193" y="20" width="61" height="75">
<path d="M193.585 20H253.585V94.6667H193.585V20Z" fill="white"/>
</mask>
<g mask="url(#mask3_231_1110)">
<mask id="mask4_231_1110" style="mask-type:luminance" maskUnits="userSpaceOnUse" x="184" y="18" width="70" height="78">
<path d="M232.231 18.8076L253.976 36.391L205.861 95.9014L184.116 78.3232L232.231 18.8076Z" fill="white"/>
</mask>
<g mask="url(#mask4_231_1110)">
<mask id="mask5_231_1110" style="mask-type:luminance" maskUnits="userSpaceOnUse" x="169" y="19" width="86" height="96">
<path d="M254.299 36.6517L232.554 19.0684L169.632 96.8965L191.377 114.475L254.299 36.6517Z" fill="white"/>
</mask>
<g mask="url(#mask5_231_1110)">
<path d="M206.08 93.3706L194.564 84.0581C194.361 83.8915 194.304 83.5998 194.434 83.3654L230.111 21.5738C230.189 21.4436 230.309 21.3498 230.455 21.3186C230.595 21.2873 230.746 21.3133 230.871 21.3915L252.33 35.0998C252.46 35.1831 252.549 35.3133 252.575 35.4644C252.601 35.6206 252.559 35.7769 252.465 35.8915L206.845 93.2873C206.752 93.3967 206.621 93.4748 206.481 93.4852C206.335 93.5009 206.194 93.4592 206.08 93.3706Z" fill="#1922FB"/>
</g>
</g>
</g>
<mask id="mask6_231_1110" style="mask-type:luminance" maskUnits="userSpaceOnUse" x="166" y="0" width="45" height="78">
<path d="M166.918 0H210.918V77.3333H166.918V0Z" fill="white"/>
</mask>
<g mask="url(#mask6_231_1110)">
<mask id="mask7_231_1110" style="mask-type:luminance" maskUnits="userSpaceOnUse" x="165" y="0" width="46" height="82">
<path d="M183.168 0.71875L210.361 7.23958L192.517 81.6615L165.324 75.1406L183.168 0.71875Z" fill="white"/>
</mask>
<g mask="url(#mask7_231_1110)">
<mask id="mask8_231_1110" style="mask-type:luminance" maskUnits="userSpaceOnUse" x="159" y="0" width="52" height="105">
<path d="M183.168 0.71875L210.361 7.23958L187.027 104.563L159.835 98.0417L183.168 0.71875Z" fill="white"/>
</mask>
<g mask="url(#mask8_231_1110)">
<path d="M167.6 73.5156L182.001 76.9688C182.262 77.0313 182.527 76.8958 182.631 76.651L209.866 10.6979C209.918 10.5625 209.918 10.4115 209.855 10.276C209.793 10.1406 209.684 10.0365 209.548 9.98438L185.595 1.33333C185.454 1.28125 185.293 1.29167 185.158 1.36458C185.022 1.4375 184.923 1.5625 184.887 1.71354L167.204 72.8646C167.168 73 167.189 73.151 167.267 73.2708C167.34 73.3958 167.46 73.4844 167.6 73.5156Z" fill="#1922FB"/>
</g>
</g>
</g>
</svg>
