<svg xmlns="http://www.w3.org/2000/svg" xmlns:xlink="http://www.w3.org/1999/xlink" width="1920" zoomAndPan="magnify" viewBox="0 0 1440 809.999993" height="1080" preserveAspectRatio="xMidYMid meet" version="1.0"><defs><g/><clipPath id="3be74ae70b"><path d="M 976 354 L 1013 354 L 1013 385 L 976 385 Z M 976 354 " clip-rule="nonzero"/></clipPath><clipPath id="f4daf2b948"><path d="M 1004.257812 353.277344 L 1013.605469 364.035156 L 984.164062 389.613281 L 974.816406 378.855469 Z M 1004.257812 353.277344 " clip-rule="nonzero"/></clipPath><clipPath id="0bb325d201"><path d="M 1004.257812 353.277344 L 1013.605469 364.035156 L 975.101562 397.484375 L 965.757812 386.726562 Z M 1004.257812 353.277344 " clip-rule="nonzero"/></clipPath><clipPath id="642337ea99"><path d="M 966 334 L 997 334 L 997 372 L 966 372 Z M 966 334 " clip-rule="nonzero"/></clipPath><clipPath id="83d250c3fd"><path d="M 986.035156 333.714844 L 997.117188 342.671875 L 972.597656 373 L 961.515625 364.042969 Z M 986.035156 333.714844 " clip-rule="nonzero"/></clipPath><clipPath id="48f936c45d"><path d="M 997.28125 342.804688 L 986.199219 333.847656 L 954.136719 373.503906 L 965.214844 382.464844 Z M 997.28125 342.804688 " clip-rule="nonzero"/></clipPath><clipPath id="93d54a7152"><path d="M 952 324 L 975 324 L 975 364 L 952 364 Z M 952 324 " clip-rule="nonzero"/></clipPath><clipPath id="126571ad25"><path d="M 961.035156 324.496094 L 974.890625 327.816406 L 965.800781 365.742188 L 951.941406 362.421875 Z M 961.035156 324.496094 " clip-rule="nonzero"/></clipPath><clipPath id="4f0bac7c88"><path d="M 961.035156 324.496094 L 974.890625 327.816406 L 963 377.414062 L 949.144531 374.089844 Z M 961.035156 324.496094 " clip-rule="nonzero"/></clipPath></defs><g clip-path="url(#3be74ae70b)"><g clip-path="url(#f4daf2b948)"><g clip-path="url(#0bb325d201)"><path fill="#1922fb" d="M 976.242188 378.855469 L 981.191406 384.554688 C 981.277344 384.65625 981.429688 384.675781 981.546875 384.605469 L 1012.375 365.324219 C 1012.4375 365.285156 1012.484375 365.21875 1012.496094 365.144531 C 1012.511719 365.070312 1012.496094 364.996094 1012.453125 364.933594 L 1005.085938 354.25 C 1005.039062 354.1875 1004.96875 354.144531 1004.894531 354.132812 C 1004.816406 354.125 1004.738281 354.148438 1004.679688 354.199219 L 976.269531 378.464844 C 976.214844 378.511719 976.179688 378.582031 976.175781 378.65625 C 976.167969 378.726562 976.195312 378.800781 976.242188 378.855469 Z M 976.242188 378.855469 " fill-opacity="1" fill-rule="nonzero"/></g></g></g><g fill="#1922fb" fill-opacity="1"><g transform="translate(453.321343, 466.874997)"><g><path d="M 40.484375 -58.242188 L 40.484375 -138.0625 L 12.03125 -138.0625 L 12.03125 0 L 40.484375 0 L 40.484375 -44.492188 L 60.152344 -12.792969 C 67.980469 -1.335938 77.910156 2.101562 89.175781 2.101562 C 96.816406 2.101562 105.789062 0.382812 114.765625 -7.449219 L 104.070312 -27.496094 C 100.445312 -25.015625 95.667969 -24.0625 93.570312 -24.0625 C 88.03125 -24.0625 84.59375 -26.160156 80.203125 -32.84375 L 67.40625 -53.277344 L 99.871094 -94.140625 L 99.871094 -97.960938 L 68.363281 -97.960938 Z M 40.484375 -58.242188 "/></g></g></g><g fill="#1922fb" fill-opacity="1"><g transform="translate(553.000523, 466.874997)"><g><path d="M 34.945312 -49.265625 C 34.945312 -64.351562 43.730469 -76.957031 59.386719 -76.957031 C 74.855469 -76.957031 85.738281 -66.070312 85.738281 -47.738281 C 85.738281 -30.171875 74.089844 -21.003906 60.152344 -21.003906 C 44.300781 -21.003906 34.945312 -33.417969 34.945312 -49.265625 Z M 84.976562 -97.960938 L 84.976562 -84.59375 C 78.292969 -93.570312 66.835938 -100.0625 53.660156 -100.0625 C 23.105469 -100.0625 6.492188 -76.957031 6.492188 -49.457031 C 6.492188 -20.8125 24.441406 2.101562 54.230469 2.101562 C 68.746094 2.101562 77.910156 -4.199219 84.976562 -14.320312 L 84.976562 0 L 113.429688 0 L 113.429688 -97.960938 Z M 84.976562 -97.960938 "/></g></g></g><g fill="#1922fb" fill-opacity="1"><g transform="translate(664.32807, 466.874997)"><g><path d="M 12.222656 0 L 40.675781 0 L 40.675781 -52.511719 C 40.675781 -66.070312 46.210938 -76.574219 59.386719 -76.574219 C 72.5625 -76.574219 77.527344 -66.261719 77.527344 -52.703125 L 77.527344 0 L 105.980469 0 L 105.980469 -53.277344 C 105.980469 -78.292969 98.535156 -100.0625 71.035156 -100.0625 C 59.007812 -100.0625 48.886719 -96.050781 40.675781 -84.59375 L 40.675781 -97.960938 L 12.222656 -97.960938 Z M 12.222656 0 "/></g></g></g><g fill="#1922fb" fill-opacity="1"><g transform="translate(767.06257, 466.874997)"><g><path d="M 40.484375 -58.242188 L 40.484375 -138.0625 L 12.03125 -138.0625 L 12.03125 0 L 40.484375 0 L 40.484375 -44.492188 L 60.152344 -12.792969 C 67.980469 -1.335938 77.910156 2.101562 89.175781 2.101562 C 96.816406 2.101562 105.789062 0.382812 114.765625 -7.449219 L 104.070312 -27.496094 C 100.445312 -25.015625 95.667969 -24.0625 93.570312 -24.0625 C 88.03125 -24.0625 84.59375 -26.160156 80.203125 -32.84375 L 67.40625 -53.277344 L 99.871094 -94.140625 L 99.871094 -97.960938 L 68.363281 -97.960938 Z M 40.484375 -58.242188 "/></g></g></g><g fill="#1922fb" fill-opacity="1"><g transform="translate(866.741749, 466.874997)"><g><path d="M 6.109375 -49.074219 C 6.109375 -18.332031 31.507812 2.101562 59.960938 2.101562 C 88.414062 2.101562 113.8125 -18.523438 113.8125 -49.074219 C 113.8125 -79.4375 88.414062 -100.0625 59.960938 -100.0625 C 31.507812 -100.0625 6.109375 -79.628906 6.109375 -49.074219 Z M 33.800781 -49.074219 C 33.800781 -64.351562 46.019531 -75.621094 59.960938 -75.621094 C 74.28125 -75.621094 86.121094 -64.160156 86.121094 -49.074219 C 86.121094 -33.800781 74.28125 -22.34375 59.960938 -22.34375 C 46.019531 -22.34375 33.800781 -33.609375 33.800781 -49.074219 Z M 33.800781 -49.074219 "/></g></g></g><g clip-path="url(#642337ea99)"><g clip-path="url(#83d250c3fd)"><g clip-path="url(#48f936c45d)"><path fill="#1922fb" d="M 972.710938 371.710938 L 966.839844 366.964844 C 966.738281 366.878906 966.707031 366.730469 966.777344 366.613281 L 984.957031 335.121094 C 984.996094 335.054688 985.054688 335.007812 985.128906 334.992188 C 985.203125 334.976562 985.28125 334.988281 985.34375 335.027344 L 996.28125 342.015625 C 996.34375 342.058594 996.390625 342.125 996.402344 342.203125 C 996.414062 342.277344 996.394531 342.359375 996.347656 342.417969 L 973.097656 371.667969 C 973.054688 371.722656 972.988281 371.761719 972.914062 371.769531 C 972.839844 371.777344 972.765625 371.753906 972.710938 371.710938 Z M 972.710938 371.710938 " fill-opacity="1" fill-rule="nonzero"/></g></g></g><g clip-path="url(#93d54a7152)"><g clip-path="url(#126571ad25)"><g clip-path="url(#4f0bac7c88)"><path fill="#1922fb" d="M 953.101562 361.59375 L 960.441406 363.351562 C 960.570312 363.382812 960.707031 363.316406 960.757812 363.191406 L 974.636719 329.582031 C 974.667969 329.511719 974.667969 329.433594 974.636719 329.363281 C 974.601562 329.296875 974.546875 329.242188 974.476562 329.21875 L 962.269531 324.808594 C 962.199219 324.78125 962.117188 324.789062 962.046875 324.824219 C 961.980469 324.859375 961.929688 324.925781 961.910156 325 L 952.898438 361.257812 C 952.878906 361.332031 952.890625 361.40625 952.929688 361.46875 C 952.96875 361.53125 953.03125 361.578125 953.101562 361.59375 Z M 953.101562 361.59375 " fill-opacity="1" fill-rule="nonzero"/></g></g></g></svg>